
<svg width="800" height="400" viewBox="0 0 800 400" xmlns="http://www.w3.org/2000/svg">
  <rect width="100%" height="100%" fill="#0f172a" />
  <text x="50%" y="30" fill="white" font-family="Arial" font-size="16" text-anchor="middle">Perfil de Catenária de Engenharia</text>
  <text x="50%" y="55" fill="#94a3b8" font-family="Arial" font-size="12" text-anchor="middle">TRIO_C1 para 0/1A | Vão: 114.63m</text>
  
  <!-- Linha de Base (Solo Indicativo) -->
  <path d="M 50 406.78591709256114 L 750 333.92958546280533" stroke="#334155" stroke-dasharray="5,5" fill="none" />
  <text x="50" y="426.78591709256114" fill="#475569" font-size="10" text-anchor="middle">TRIO_C1 (Elev: 98.73m)</text>
  <text x="750" y="353.92958546280533" fill="#475569" font-size="10" text-anchor="middle">0/1A (Elev: 111.56m)</text>

  <!-- Estruturas (Torres) -->
  <line x1="50" y1="406.78591709256114" x2="50" y2="236.4281658148779" stroke="#cbd5e1" stroke-width="4" />
  <line x1="750" y1="333.92958546280533" x2="750" y2="163.57183418512213" stroke="#cbd5e1" stroke-width="4" />
  
  <!-- Cabo Catenária -->
  <path d="M 50 236.4281658148779 L 64 235.58062493920093 L 78 234.70818594167082 L 92 233.81085095637462 L 106 232.88862202652982 L 120 231.94150110449158 L 134 230.9694900517637 L 148 229.97259063899904 L 162 228.95080454600776 L 176 227.9041333617679 L 190 226.83257858442516 L 204 225.73614162130326 L 218 224.61482378890508 L 232 223.46862631292112 L 246.00000000000003 222.29755032822766 L 260 221.1015968789027 L 274 219.880766918215 L 288 218.6350613086411 L 302 217.36448082185882 L 316 216.06902613875295 L 330 214.7486978494215 L 344 213.40349645317414 L 358 212.03342235853174 L 372 210.63847588323384 L 386 209.2186572542348 L 400 207.77396660770756 L 414 206.30440398904466 L 428 204.80996935285324 L 442.00000000000006 203.290662562961 L 456 201.74648339241324 L 470 200.17743152347046 L 484 198.58350654761148 L 498 196.96470796552717 L 512 195.32103518711935 L 526 193.65248753150274 L 540 191.95906422700037 L 554 190.24076441113513 L 568 188.49758713063846 L 582 186.72953134143197 L 595.9999999999999 184.93659590864 L 610 183.1187796065718 L 624 181.27608111872433 L 638 179.40849903777377 L 652 177.5160318655749 L 666 175.59867801314942 L 680 173.65643580068684 L 694 171.68930345753495 L 708 169.69727912218963 L 722 167.68036084229567 L 736 165.6385465746353 L 750 163.57183418512213" fill="none" stroke="#f59e0b" stroke-width="3" />
  
  <!-- Pontos de Suspensão -->
  <circle cx="50" cy="236.4281658148779" r="5" fill="#f59e0b" />
  <circle cx="750" cy="163.57183418512213" r="5" fill="#f59e0b" />

  <!-- Info Sag -->
  <text x="400" y="232.77396660770756" fill="#f59e0b" font-family="Arial" font-size="11" text-anchor="middle">
    Sag Máximo (C=1200m)
  </text>
</svg>
